<svg width="70" height="56" viewBox="0 0 70 56" fill="none" xmlns="http://www.w3.org/2000/svg">
<path d="M25.2722 8.61482V11.3547C25.2722 11.9068 24.8314 12.3545 24.2793 12.3547C20.222 12.3565 5.09096 12.3632 4.54286 12.3637C4.52426 12.3637 4.52245 12.3637 4.53844 12.3637C4.53991 12.3637 4.54138 12.3637 4.54286 12.3637C5.10469 12.3579 6.21951 11.2644 6.1992 9.98455C6.17883 8.70131 5.09883 7.61482 4.53846 7.61482H24.2789C24.8311 7.61482 25.2722 8.06254 25.2722 8.61482Z" fill="#172554"/>
<path d="M2.99839 7.98013H3.08952C4.19914 7.98013 5.09866 8.87965 5.09866 9.98927C5.09866 11.0989 4.19914 11.9984 3.08952 11.9984H2.99839C1.88878 11.9984 0.989258 11.0989 0.989258 9.98927C0.989258 8.87965 1.88878 7.98013 2.99839 7.98013Z" fill="#2B7FFF" stroke="#172554"/>
<path d="M0.989258 39.7195V15.3275C0.989258 14.2958 1.82555 13.4595 2.85717 13.4595C3.88878 13.4595 4.72507 14.2958 4.72507 15.3275V39.7195C4.72507 40.7511 3.88878 41.5874 2.85717 41.5874C1.82555 41.5874 0.989258 40.7511 0.989258 39.7195Z" fill="#172554" stroke="#172554"/>
<path d="M20.042 27.8979V27.5143C20.042 26.4098 19.1466 25.5143 18.0421 25.5143H7.84595C6.74138 25.5143 5.84595 26.4098 5.84595 27.5143V27.8979C5.84595 29.0025 6.74138 29.8979 7.84595 29.8979H18.042C19.1466 29.8979 20.042 29.0025 20.042 27.8979Z" fill="#172554"/>
<path d="M24.8986 45.4322V44.6834C24.8986 43.5788 24.0031 42.6834 22.8986 42.6834H7.53333C6.73579 42.6834 6.01448 43.1572 5.69778 43.8892L5.37376 44.638C4.80242 45.9586 5.77051 47.4322 7.20932 47.4322H22.8986C24.0031 47.4322 24.8986 46.5368 24.8986 45.4322Z" fill="#172554"/>
<path d="M2.34905 43.0487H3.36533C4.09098 43.0487 4.57503 43.7973 4.27726 44.459L3.76912 45.5883C3.41534 46.3745 2.29903 46.3745 1.94526 45.5883L1.43712 44.459C1.13935 43.7973 1.6234 43.0487 2.34905 43.0487Z" fill="#172554" stroke="#172554"/>
<path d="M65.7124 21.7651C70.0162 36.922 60.5788 47.4478 47.3238 47.6129C19.7234 47.9565 22.1132 1.55586 54.4851 9.97639" stroke="#172554" stroke-width="4" stroke-linecap="round"/>
<path d="M58.0403 25.8818C60.8471 34.6766 53.9073 39.8234 47.1217 39.8313C30.3437 39.8507 31.8434 13.906 50.1812 16.7128" stroke="#172554" stroke-width="4" stroke-linecap="round"/>
<path d="M47.3797 23.7387C45.1061 23.7387 43.263 25.5818 43.263 27.8554C43.263 30.129 45.1061 31.9721 47.3797 31.9721C49.6532 31.9721 51.4963 30.129 51.4963 27.8554C51.4963 25.5818 49.6532 23.7387 47.3797 23.7387Z" fill="#2B7FFF" stroke="#172554" stroke-width="2"/>
<path d="M54.8806 16.1567L53.8685 21.4449L59.9918 21.1979C60.2261 21.1884 60.4497 21.0969 60.6234 20.9393L66.038 16.0277C66.7152 15.4134 66.2811 14.2877 65.367 14.287L62.5273 14.2848C61.9573 14.2843 61.5029 13.8083 61.5291 13.2388L61.6239 11.1782C61.6668 10.2437 60.5176 9.76714 59.8867 10.4578L55.1245 15.6701C54.9998 15.8066 54.9153 15.9751 54.8806 16.1567Z" fill="#172554"/>
<path d="M47.436 27.8825L53.8685 21.4449M53.8685 21.4449L54.8806 16.1567C54.9153 15.9751 54.9998 15.8066 55.1245 15.6701L59.8867 10.4578C60.5176 9.76714 61.6668 10.2437 61.6239 11.1782L61.5291 13.2388C61.5029 13.8083 61.9573 14.2843 62.5273 14.2848L65.367 14.287C66.2811 14.2877 66.7152 15.4134 66.038 16.0277L60.6234 20.9393C60.4497 21.0969 60.2261 21.1884 59.9918 21.1979L53.8685 21.4449Z" stroke="#172554" stroke-width="2"/>
</svg>
